<svg version="1.1" id="Layer_1" xmlns="http://www.w3.org/2000/svg" xmlns:xlink="http://www.w3.org/1999/xlink" x="10px" y="0px"
	 width="200%" height="200" viewBox="150 0 1121 702" enable-background="new 0 0 1121 702" xml:space="preserve">
<path fill="#f0f4f8" opacity="1.000000" stroke="none" 
	d="
M707.000000,703.000000 
	C471.333344,703.000000 236.166702,703.000000 1.000031,703.000000 
	C1.000021,469.000031 1.000021,235.000061 1.000010,1.000063 
	C374.666626,1.000042 748.333252,1.000042 1122.000000,1.000021 
	C1122.000000,234.999939 1122.000000,468.999878 1122.000000,702.999878 
	C983.833313,703.000000 845.666687,703.000000 707.000000,703.000000 
M395.283569,389.500061 
	C395.283478,342.187225 395.293823,294.874390 395.272736,247.561539 
	C395.269287,239.795364 392.444366,236.936508 384.777740,236.934464 
	C319.306030,236.917114 253.834320,236.918594 188.362610,236.932480 
	C180.714081,236.934113 177.843536,239.840958 177.842392,247.528168 
	C177.832687,312.833282 177.833954,378.138428 177.840866,443.443542 
	C177.841675,451.132538 180.722153,454.068420 188.326202,454.069733 
	C253.797913,454.080994 319.269623,454.080872 384.741333,454.069580 
	C392.369720,454.068268 395.258881,451.173340 395.273010,443.477142 
	C395.305420,425.818176 395.283539,408.159088 395.283569,389.500061 
M655.050903,381.182465 
	C655.289490,380.386078 655.732239,379.590729 655.736389,378.793121 
	C655.807434,365.153351 656.306152,351.489807 655.642944,337.883545 
	C655.326660,331.394928 651.125732,325.839661 644.143311,325.224915 
	C635.342529,324.450134 626.421753,325.038055 616.900635,325.038055 
	C616.900635,316.018372 616.900635,306.669708 616.900635,296.553955 
	C613.086792,298.323212 609.971252,299.485382 607.193604,301.196198 
	C606.079285,301.882568 605.095947,303.772247 605.089478,305.119232 
	C604.976562,328.582581 604.886658,352.047974 605.103577,375.510040 
	C605.194885,385.387878 611.614624,391.585480 621.491943,391.931335 
	C627.475281,392.140839 633.486938,392.237823 639.458618,391.902069 
	C646.329529,391.515717 652.021912,388.829895 655.050903,381.182465 
M504.774231,387.337280 
	C509.261078,382.591980 510.915558,376.821716 510.914856,370.441223 
	C510.912384,348.134796 510.925262,325.828369 510.905151,303.521942 
	C510.903839,302.098053 510.671417,300.674347 510.523834,298.991821 
	C498.398621,298.991821 486.756439,298.991638 475.114288,298.991852 
	C467.301117,298.992004 465.069855,301.125397 464.171539,310.152832 
	C475.408966,310.152832 486.596436,310.152832 498.160187,310.152832 
	C498.160187,313.567169 498.160431,316.211212 498.160156,318.855255 
	C498.158234,335.834778 498.204895,352.814514 498.132782,369.793732 
	C498.098969,377.756287 495.336456,380.568146 487.359283,380.862793 
	C482.870789,381.028564 478.367950,381.006714 473.877380,380.873871 
	C465.100525,380.614288 462.381775,377.890991 462.062653,369.100830 
	C461.933838,365.552032 462.041412,361.994659 462.041412,358.211731 
	C449.822021,362.375916 449.638519,362.618591 449.983276,373.382385 
	C450.338898,384.483826 457.505127,391.697723 468.647766,391.940125 
	C475.802460,392.095764 483.012665,392.501007 490.103546,391.816223 
	C494.884155,391.354584 499.500000,389.186890 504.774231,387.337280 
M937.090637,377.393005 
	C936.761536,377.961945 936.561829,378.695435 936.082092,379.072876 
	C933.175842,381.359161 917.262512,381.847809 914.264954,379.694916 
	C911.386047,377.627228 911.422058,375.848999 914.473572,373.556091 
	C925.507141,365.265411 936.368286,356.744415 947.242920,348.244263 
	C948.353394,347.376282 949.807129,346.134827 949.928894,344.946533 
	C950.721680,337.208740 949.179016,327.057861 938.379822,325.246918 
	C930.442627,323.915985 922.115662,323.785950 914.077271,324.470276 
	C904.351929,325.298248 899.348450,331.209869 899.152039,340.699615 
	C898.910828,352.350311 898.869690,364.015320 899.160828,375.663696 
	C899.405762,385.466370 905.902832,391.620331 915.757141,391.946686 
	C920.581055,392.106476 925.424805,391.789001 930.240967,392.041992 
	C945.776367,392.858093 953.025513,382.771851 949.200012,365.395935 
	C938.906006,368.811157 938.906006,368.811157 937.090637,377.393005 
M532.766968,337.492767 
	C532.650208,350.779572 531.830078,364.109924 532.649170,377.338776 
	C533.254944,387.122284 539.715332,391.806305 549.608826,391.972412 
	C555.432983,392.070221 561.264648,392.113739 567.085388,391.935516 
	C576.244019,391.655151 582.417664,386.331726 582.961548,377.347931 
	C583.633789,366.242920 584.035950,355.069824 583.602478,343.963287 
	C583.102173,331.140381 579.198914,325.787262 569.185425,324.585297 
	C561.510925,323.664062 553.583801,324.137451 545.833069,324.772736 
	C538.835876,325.346283 534.344910,329.573700 532.766968,337.492767 
M811.018494,362.500000 
	C811.002502,355.178192 811.097534,347.853973 810.941406,340.535156 
	C810.760010,332.034180 806.545898,326.556366 798.293030,325.030640 
	C793.286011,324.105011 788.063110,324.202728 782.932800,324.120453 
	C774.639465,323.987427 772.929199,325.625702 771.298340,335.096436 
	C776.988831,335.096436 782.592712,335.082397 788.196472,335.099579 
	C797.539185,335.128235 799.914978,338.023224 798.451294,347.005676 
	C792.305786,346.737335 786.220032,346.140991 780.150757,346.277740 
	C768.737061,346.534882 763.026855,350.663666 761.593628,360.410248 
	C760.734314,366.254242 760.797913,372.408112 761.569458,378.275055 
	C762.611572,386.199707 767.588013,390.942902 775.489014,391.708923 
	C781.910156,392.331421 788.444946,391.715668 794.926208,391.827423 
	C796.730713,391.858490 798.524292,392.523590 800.322876,392.897827 
	C802.123108,393.244568 803.831970,392.146149 805.701416,391.557526 
	C810.039490,390.191589 811.442566,387.512939 811.132202,382.962097 
	C810.691650,376.502167 811.018311,369.989899 811.018494,362.500000 
M834.779907,328.228424 
	C833.159424,331.763794 830.392822,335.216797 830.131836,338.849823 
	C829.322815,350.108490 828.949158,361.454956 829.370239,372.731384 
	C829.910767,387.203857 835.531128,391.984436 850.208252,392.005615 
	C853.538147,392.010437 856.875977,391.856659 860.196655,392.031830 
	C875.664062,392.847748 883.560059,383.887482 879.956726,364.795410 
	C877.929565,365.729889 876.061462,366.711426 874.105957,367.466766 
	C870.353699,368.916046 867.601379,370.638580 867.690247,375.571625 
	C867.720337,377.242828 864.637756,380.149384 862.670532,380.444519 
	C857.789734,381.176819 852.722351,380.928223 847.748413,380.689056 
	C844.066345,380.512024 842.031494,378.205933 842.018860,374.439270 
	C841.982605,363.617554 841.999451,352.795654 841.995544,341.973846 
	C841.993835,337.376190 844.678284,335.358734 848.891113,335.167145 
	C852.878723,334.985779 856.889526,334.949005 860.874084,335.156158 
	C866.225037,335.434418 867.875488,337.247437 868.073608,342.651581 
	C868.173218,345.366730 868.091003,348.088562 868.091003,351.817627 
	C872.575867,349.780579 875.899353,348.366180 879.115540,346.739777 
	C879.868530,346.359070 880.547974,345.335632 880.770020,344.480377 
	C882.734924,336.912262 877.206116,326.464661 869.429016,325.377380 
	C860.802246,324.171356 851.917908,324.504913 843.159851,324.725983 
	C840.550537,324.791870 837.988708,326.734619 834.779907,328.228424 
M682.918030,357.500000 
	C682.918030,369.552124 682.918030,381.604248 682.918030,394.285339 
	C685.491150,393.236633 687.111267,392.440308 688.813904,391.908447 
	C693.526550,390.436432 695.286438,387.751953 695.191589,382.420502 
	C694.797546,360.274445 695.026123,338.117310 695.026123,315.964233 
	C695.026123,314.190063 695.026123,312.415894 695.026123,310.938049 
	C695.961975,310.502106 696.251953,310.251923 696.545776,310.247345 
	C701.039124,310.176727 705.532837,310.112854 710.026611,310.098114 
	C717.097107,310.074982 720.132751,306.959381 720.442993,298.999847 
	C702.959229,298.999847 685.487488,298.999634 668.015808,298.999939 
	C660.805359,299.000031 658.005371,301.852081 657.510559,310.181000 
	C665.789124,310.181000 674.049988,310.181000 682.917786,310.181000 
	C682.917786,325.957520 682.917786,341.228760 682.918030,357.500000 
M732.086426,383.260132 
	C732.087219,370.612946 732.005859,357.965027 732.118164,345.318848 
	C732.191406,337.064972 734.143799,335.189392 742.047668,335.098694 
	C743.378845,335.083435 744.765015,335.325989 746.026428,335.028381 
	C747.347046,334.716797 749.078247,334.228882 749.698181,333.236145 
	C751.329834,330.623260 752.455627,327.694458 754.020874,324.388885 
	C747.083008,324.388885 740.745911,323.718231 734.608521,324.539856 
	C724.390808,325.907715 720.064392,331.462189 720.007080,341.930237 
	C719.919739,357.905121 719.965820,373.880768 719.981506,389.856110 
	C719.982788,391.127747 720.187744,392.399200 720.300476,393.698334 
	C728.777588,392.122589 731.940430,389.518890 732.086426,383.260132 
z"/>
<path fill="#265978" opacity="1.000000" stroke="none" 
	d="
M395.283630,390.000061 
	C395.283539,408.159088 395.305420,425.818176 395.273010,443.477142 
	C395.258881,451.173340 392.369720,454.068268 384.741333,454.069580 
	C319.269623,454.080872 253.797913,454.080994 188.326202,454.069733 
	C180.722153,454.068420 177.841675,451.132538 177.840866,443.443542 
	C177.833954,378.138428 177.832687,312.833282 177.842392,247.528168 
	C177.843536,239.840958 180.714081,236.934113 188.362610,236.932480 
	C253.834320,236.918594 319.306030,236.917114 384.777740,236.934464 
	C392.444366,236.936508 395.269287,239.795364 395.272736,247.561539 
	C395.293823,294.874390 395.283478,342.187225 395.283630,390.000061 
M305.889923,369.169891 
	C305.292725,378.742859 303.449371,381.901855 296.502258,382.532166 
	C289.906464,383.130585 283.174835,383.099579 276.573914,382.526917 
	C270.129517,381.967804 268.038574,379.156311 267.842896,372.626434 
	C267.710480,368.207855 267.817627,363.782104 267.817627,359.216797 
	C255.095673,361.902466 253.827011,363.559052 254.873871,375.244843 
	C254.903564,375.576263 254.894516,375.911072 254.920547,376.242950 
	C255.691437,386.071320 262.307068,393.140503 272.028717,393.915527 
	C279.311218,394.496063 286.663666,394.996521 293.943298,394.652161 
	C309.978210,393.893677 317.121796,389.400513 318.723541,373.538422 
	C318.890350,371.886414 318.892212,370.213135 318.893005,368.549683 
	C318.903442,346.395721 318.899963,324.241760 318.899994,302.087799 
	C318.899994,300.314240 318.899994,298.540680 318.899994,296.269165 
	C304.152863,296.269165 290.036346,296.247589 275.920349,296.321442 
	C275.050720,296.325989 273.756256,296.851654 273.390259,297.529480 
	C271.615479,300.816132 270.090302,304.237549 267.962280,308.686737 
	C281.258362,308.686737 293.286835,308.686737 305.890106,308.686737 
	C305.890106,329.019196 305.890106,348.628845 305.889923,369.169891 
z"/>
<path fill="#95A0D1" opacity="1.000000" stroke="none" 
	d="
M654.953857,381.571960 
	C652.021912,388.829895 646.329529,391.515717 639.458618,391.902069 
	C633.486938,392.237823 627.475281,392.140839 621.491943,391.931335 
	C611.614624,391.585480 605.194885,385.387878 605.103577,375.510040 
	C604.886658,352.047974 604.976562,328.582581 605.089478,305.119232 
	C605.095947,303.772247 606.079285,301.882568 607.193604,301.196198 
	C609.971252,299.485382 613.086792,298.323212 616.900635,296.553955 
	C616.900635,306.669708 616.900635,316.018372 616.900635,325.038055 
	C626.421753,325.038055 635.342529,324.450134 644.143311,325.224915 
	C651.125732,325.839661 655.326660,331.394928 655.642944,337.883545 
	C656.306152,351.489807 655.807434,365.153351 655.736389,378.793121 
	C655.732239,379.590729 655.289490,380.386078 654.953857,381.571960 
M643.916321,373.034576 
	C643.918335,363.544617 644.008911,354.053558 643.894409,344.565002 
	C643.801208,336.833832 642.013245,335.145172 634.459595,335.088196 
	C631.462891,335.065582 628.464355,335.023651 625.469421,335.099365 
	C619.504578,335.250183 617.464478,336.730347 617.268372,342.673920 
	C616.922729,353.149963 617.034180,363.648407 617.238708,374.131897 
	C617.326050,378.607391 619.803589,381.139191 624.630066,380.941589 
	C628.120422,380.798706 631.633667,380.730469 635.114929,380.959229 
	C640.314331,381.300934 643.488342,379.419373 643.916321,373.034576 
z"/>
<path fill="#97A1D2" opacity="1.000000" stroke="none" 
	d="
M504.481903,387.559845 
	C499.500000,389.186890 494.884155,391.354584 490.103546,391.816223 
	C483.012665,392.501007 475.802460,392.095764 468.647766,391.940125 
	C457.505127,391.697723 450.338898,384.483826 449.983276,373.382385 
	C449.638519,362.618591 449.822021,362.375916 462.041412,358.211731 
	C462.041412,361.994659 461.933838,365.552032 462.062653,369.100830 
	C462.381775,377.890991 465.100525,380.614288 473.877380,380.873871 
	C478.367950,381.006714 482.870789,381.028564 487.359283,380.862793 
	C495.336456,380.568146 498.098969,377.756287 498.132782,369.793732 
	C498.204895,352.814514 498.158234,335.834778 498.160156,318.855255 
	C498.160431,316.211212 498.160187,313.567169 498.160187,310.152832 
	C486.596436,310.152832 475.408966,310.152832 464.171539,310.152832 
	C465.069855,301.125397 467.301117,298.992004 475.114288,298.991852 
	C486.756439,298.991638 498.398621,298.991821 510.523834,298.991821 
	C510.671417,300.674347 510.903839,302.098053 510.905151,303.521942 
	C510.925262,325.828369 510.912384,348.134796 510.914856,370.441223 
	C510.915558,376.821716 509.261078,382.591980 504.481903,387.559845 
z"/>
<path fill="#96A0D2" opacity="1.000000" stroke="none" 
	d="
M937.216187,377.008728 
	C938.906006,368.811157 938.906006,368.811157 949.200012,365.395935 
	C953.025513,382.771851 945.776367,392.858093 930.240967,392.041992 
	C925.424805,391.789001 920.581055,392.106476 915.757141,391.946686 
	C905.902832,391.620331 899.405762,385.466370 899.160828,375.663696 
	C898.869690,364.015320 898.910828,352.350311 899.152039,340.699615 
	C899.348450,331.209869 904.351929,325.298248 914.077271,324.470276 
	C922.115662,323.785950 930.442627,323.915985 938.379822,325.246918 
	C949.179016,327.057861 950.721680,337.208740 949.928894,344.946533 
	C949.807129,346.134827 948.353394,347.376282 947.242920,348.244263 
	C936.368286,356.744415 925.507141,365.265411 914.473572,373.556091 
	C911.422058,375.848999 911.386047,377.627228 914.264954,379.694916 
	C917.262512,381.847809 933.175842,381.359161 936.082092,379.072876 
	C936.561829,378.695435 936.761536,377.961945 937.216187,377.008728 
M912.129211,338.993164 
	C911.685364,346.505402 911.241516,354.017670 910.719116,362.859009 
	C913.317993,361.196869 914.585632,360.530762 915.688599,359.656799 
	C922.060974,354.607330 928.483826,349.613770 934.672424,344.346008 
	C936.052856,343.170929 937.687561,340.511963 937.212280,339.354370 
	C936.487427,337.588898 934.134033,335.574646 932.281677,335.367218 
	C927.360657,334.816162 922.317444,334.918915 917.366638,335.312958 
	C915.656189,335.449097 914.075134,337.210510 912.129211,338.993164 
z"/>
<path fill="#96A1D2" opacity="1.000000" stroke="none" 
	d="
M532.850342,337.083679 
	C534.344910,329.573700 538.835876,325.346283 545.833069,324.772736 
	C553.583801,324.137451 561.510925,323.664062 569.185425,324.585297 
	C579.198914,325.787262 583.102173,331.140381 583.602478,343.963287 
	C584.035950,355.069824 583.633789,366.242920 582.961548,377.347931 
	C582.417664,386.331726 576.244019,391.655151 567.085388,391.935516 
	C561.264648,392.113739 555.432983,392.070221 549.608826,391.972412 
	C539.715332,391.806305 533.254944,387.122284 532.649170,377.338776 
	C531.830078,364.109924 532.650208,350.779572 532.850342,337.083679 
M571.004395,374.010406 
	C571.003418,363.532806 570.953918,353.054901 571.023560,342.577789 
	C571.054749,337.880219 568.779053,335.380035 564.204102,335.173645 
	C560.055298,334.986450 555.883057,334.967651 551.736572,335.178406 
	C547.311218,335.403351 544.763733,337.493195 544.842285,342.422211 
	C545.009094,352.897003 544.822876,363.377014 544.919617,373.853577 
	C544.966064,378.879364 546.852844,380.717865 551.881165,380.875275 
	C555.868774,381.000092 559.863586,380.875336 563.854858,380.908264 
	C567.969910,380.942200 570.490723,379.144989 571.004395,374.010406 
z"/>
<path fill="#96A0D2" opacity="1.000000" stroke="none" 
	d="
M811.017822,363.000000 
	C811.018311,369.989899 810.691650,376.502167 811.132202,382.962097 
	C811.442566,387.512939 810.039490,390.191589 805.701416,391.557526 
	C803.831970,392.146149 802.123108,393.244568 800.322876,392.897827 
	C798.524292,392.523590 796.730713,391.858490 794.926208,391.827423 
	C788.444946,391.715668 781.910156,392.331421 775.489014,391.708923 
	C767.588013,390.942902 762.611572,386.199707 761.569458,378.275055 
	C760.797913,372.408112 760.734314,366.254242 761.593628,360.410248 
	C763.026855,350.663666 768.737061,346.534882 780.150757,346.277740 
	C786.220032,346.140991 792.305786,346.737335 798.451294,347.005676 
	C799.914978,338.023224 797.539185,335.128235 788.196472,335.099579 
	C782.592712,335.082397 776.988831,335.096436 771.298340,335.096436 
	C772.929199,325.625702 774.639465,323.987427 782.932800,324.120453 
	C788.063110,324.202728 793.286011,324.105011 798.293030,325.030640 
	C806.545898,326.556366 810.760010,332.034180 810.941406,340.535156 
	C811.097534,347.853973 811.002502,355.178192 811.017822,363.000000 
M776.715210,380.150360 
	C782.485901,380.342590 788.279785,380.883209 794.012085,380.500214 
	C795.591003,380.394745 797.972168,377.695190 798.267151,375.903137 
	C798.958862,371.701111 798.936707,367.300446 798.574524,363.033569 
	C798.317383,360.004913 796.326416,357.914062 792.846313,357.945740 
	C788.190002,357.988129 783.516968,357.751923 778.885498,358.096649 
	C777.341858,358.211578 774.952332,359.454346 774.576843,360.680084 
	C772.607971,367.105896 771.848389,373.633240 776.715210,380.150360 
z"/>
<path fill="#96A1D2" opacity="1.000000" stroke="none" 
	d="
M835.092529,328.022919 
	C837.988708,326.734619 840.550537,324.791870 843.159851,324.725983 
	C851.917908,324.504913 860.802246,324.171356 869.429016,325.377380 
	C877.206116,326.464661 882.734924,336.912262 880.770020,344.480377 
	C880.547974,345.335632 879.868530,346.359070 879.115540,346.739777 
	C875.899353,348.366180 872.575867,349.780579 868.091003,351.817627 
	C868.091003,348.088562 868.173218,345.366730 868.073608,342.651581 
	C867.875488,337.247437 866.225037,335.434418 860.874084,335.156158 
	C856.889526,334.949005 852.878723,334.985779 848.891113,335.167145 
	C844.678284,335.358734 841.993835,337.376190 841.995544,341.973846 
	C841.999451,352.795654 841.982605,363.617554 842.018860,374.439270 
	C842.031494,378.205933 844.066345,380.512024 847.748413,380.689056 
	C852.722351,380.928223 857.789734,381.176819 862.670532,380.444519 
	C864.637756,380.149384 867.720337,377.242828 867.690247,375.571625 
	C867.601379,370.638580 870.353699,368.916046 874.105957,367.466766 
	C876.061462,366.711426 877.929565,365.729889 879.956726,364.795410 
	C883.560059,383.887482 875.664062,392.847748 860.196655,392.031830 
	C856.875977,391.856659 853.538147,392.010437 850.208252,392.005615 
	C835.531128,391.984436 829.910767,387.203857 829.370239,372.731384 
	C828.949158,361.454956 829.322815,350.108490 830.131836,338.849823 
	C830.392822,335.216797 833.159424,331.763794 835.092529,328.022919 
z"/>
<path fill="#949FD1" opacity="1.000000" stroke="none" 
	d="
M682.917908,357.000000 
	C682.917786,341.228760 682.917786,325.957520 682.917786,310.181000 
	C674.049988,310.181000 665.789124,310.181000 657.510559,310.181000 
	C658.005371,301.852081 660.805359,299.000031 668.015808,298.999939 
	C685.487488,298.999634 702.959229,298.999847 720.442993,298.999847 
	C720.132751,306.959381 717.097107,310.074982 710.026611,310.098114 
	C705.532837,310.112854 701.039124,310.176727 696.545776,310.247345 
	C696.251953,310.251923 695.961975,310.502106 695.026123,310.938049 
	C695.026123,312.415894 695.026123,314.190063 695.026123,315.964233 
	C695.026123,338.117310 694.797546,360.274445 695.191589,382.420502 
	C695.286438,387.751953 693.526550,390.436432 688.813904,391.908447 
	C687.111267,392.440308 685.491150,393.236633 682.918030,394.285339 
	C682.918030,381.604248 682.918030,369.552124 682.917908,357.000000 
z"/>
<path fill="#96A0D2" opacity="1.000000" stroke="none" 
	d="
M732.086548,383.724457 
	C731.940430,389.518890 728.777588,392.122589 720.300476,393.698334 
	C720.187744,392.399200 719.982788,391.127747 719.981506,389.856110 
	C719.965820,373.880768 719.919739,357.905121 720.007080,341.930237 
	C720.064392,331.462189 724.390808,325.907715 734.608521,324.539856 
	C740.745911,323.718231 747.083008,324.388885 754.020874,324.388885 
	C752.455627,327.694458 751.329834,330.623260 749.698181,333.236145 
	C749.078247,334.228882 747.347046,334.716797 746.026428,335.028381 
	C744.765015,335.325989 743.378845,335.083435 742.047668,335.098694 
	C734.143799,335.189392 732.191406,337.064972 732.118164,345.318848 
	C732.005859,357.965027 732.087219,370.612946 732.086548,383.724457 
z"/>
<path fill="#929ED0" opacity="1.000000" stroke="none" 
	d="
M305.890015,368.704163 
	C305.890106,348.628845 305.890106,329.019196 305.890106,308.686737 
	C293.286835,308.686737 281.258362,308.686737 267.962280,308.686737 
	C270.090302,304.237549 271.615479,300.816132 273.390259,297.529480 
	C273.756256,296.851654 275.050720,296.325989 275.920349,296.321442 
	C290.036346,296.247589 304.152863,296.269165 318.899994,296.269165 
	C318.899994,298.540680 318.899994,300.314240 318.899994,302.087799 
	C318.899963,324.241760 318.903442,346.395721 318.893005,368.549683 
	C318.892212,370.213135 318.890350,371.886414 318.723541,373.538422 
	C317.121796,389.400513 309.978210,393.893677 293.943298,394.652161 
	C286.663666,394.996521 279.311218,394.496063 272.028717,393.915527 
	C262.307068,393.140503 255.691437,386.071320 254.920547,376.242950 
	C254.894516,375.911072 254.903564,375.576263 254.873871,375.244843 
	C253.827011,363.559052 255.095673,361.902466 267.817627,359.216797 
	C267.817627,363.782104 267.710480,368.207855 267.842896,372.626434 
	C268.038574,379.156311 270.129517,381.967804 276.573914,382.526917 
	C283.174835,383.099579 289.906464,383.130585 296.502258,382.532166 
	C303.449371,381.901855 305.292725,378.742859 305.890015,368.704163 
z"/>
<path fill="#F4F7F9" opacity="1.000000" stroke="none" 
	d="
M643.899414,373.477722 
	C643.488342,379.419373 640.314331,381.300934 635.114929,380.959229 
	C631.633667,380.730469 628.120422,380.798706 624.630066,380.941589 
	C619.803589,381.139191 617.326050,378.607391 617.238708,374.131897 
	C617.034180,363.648407 616.922729,353.149963 617.268372,342.673920 
	C617.464478,336.730347 619.504578,335.250183 625.469421,335.099365 
	C628.464355,335.023651 631.462891,335.065582 634.459595,335.088196 
	C642.013245,335.145172 643.801208,336.833832 643.894409,344.565002 
	C644.008911,354.053558 643.918335,363.544617 643.899414,373.477722 
z"/>
<path fill="#F3F5F8" opacity="1.000000" stroke="none" 
	d="
M912.282104,338.611328 
	C914.075134,337.210510 915.656189,335.449097 917.366638,335.312958 
	C922.317444,334.918915 927.360657,334.816162 932.281677,335.367218 
	C934.134033,335.574646 936.487427,337.588898 937.212280,339.354370 
	C937.687561,340.511963 936.052856,343.170929 934.672424,344.346008 
	C928.483826,349.613770 922.060974,354.607330 915.688599,359.656799 
	C914.585632,360.530762 913.317993,361.196869 910.719116,362.859009 
	C911.241516,354.017670 911.685364,346.505402 912.282104,338.611328 
z"/>
<path fill="#F6F8FA" opacity="1.000000" stroke="none" 
	d="
M570.984680,374.454529 
	C570.490723,379.144989 567.969910,380.942200 563.854858,380.908264 
	C559.863586,380.875336 555.868774,381.000092 551.881165,380.875275 
	C546.852844,380.717865 544.966064,378.879364 544.919617,373.853577 
	C544.822876,363.377014 545.009094,352.897003 544.842285,342.422211 
	C544.763733,337.493195 547.311218,335.403351 551.736572,335.178406 
	C555.883057,334.967651 560.055298,334.986450 564.204102,335.173645 
	C568.779053,335.380035 571.054749,337.880219 571.023560,342.577789 
	C570.953918,353.054901 571.003418,363.532806 570.984680,374.454529 
z"/>
<path fill="#F4F7F9" opacity="1.000000" stroke="none" 
	d="
M776.376831,379.909210 
	C771.848389,373.633240 772.607971,367.105896 774.576843,360.680084 
	C774.952332,359.454346 777.341858,358.211578 778.885498,358.096649 
	C783.516968,357.751923 788.190002,357.988129 792.846313,357.945740 
	C796.326416,357.914062 798.317383,360.004913 798.574524,363.033569 
	C798.936707,367.300446 798.958862,371.701111 798.267151,375.903137 
	C797.972168,377.695190 795.591003,380.394745 794.012085,380.500214 
	C788.279785,380.883209 782.485901,380.342590 776.376831,379.909210 
z"/>
</svg>