<?xml version="1.0" encoding="utf-8"?>
<!-- Generator: Adobe Illustrator 27.5.0, SVG Export Plug-In . SVG Version: 6.00 Build 0)  -->
<svg version="1.1" xmlns="http://www.w3.org/2000/svg" xmlns:xlink="http://www.w3.org/1999/xlink" x="0px" y="0px"
	 viewBox="0 0 500 500" style="enable-background:new 0 0 500 500;" xml:space="preserve">
<g id="BACKGROUND">
	<rect x="0.34" y="2.068" style="fill:#FFFFFF;" width="500" height="500"/>
</g>
<g id="OBJECTS_1_">
	<path style="fill:#C0E6E4;" d="M295.91,390.515c-41.042,15.784-88.377,20.16-128.506,2.104
		c-40.129-18.056-69.952-62.134-62.647-105.528c2.773-16.474,10.494-32.511,8.522-49.105c-2.241-18.86-16.504-34.106-21.828-52.339
		c-5.082-17.401-1.521-36.536,6.849-52.6c8.37-16.064,21.207-29.383,35.055-41.052c21.893-18.448,47.508-33.629,75.793-38.072
		c28.285-4.443,59.485,3.278,78.718,24.525c29.706,32.817,25.453,88.754,59.682,116.814c15.529,12.73,36.488,17.217,52.217,29.698
		c14.839,11.775,23.903,30.517,23.92,49.458C423.738,334.698,342.744,372.503,295.91,390.515z"/>
	<ellipse style="fill:#B8C9DE;stroke:#FFFFFF;stroke-miterlimit:10;" cx="250" cy="448.569" rx="68.468" ry="16.085"/>
	<g>
		<g>
			<g>
				<path style="fill:#3537A6;" d="M275.636,134.977c-1.114-7.404-1.502-16.164-7.87-20.845c-9.869-7.252-24.517-1.944-35.31-0.093
					c-9.647,1.654-10.702,12.609-11.785,20.609c-0.731,5.402-0.478,11.736-2.126,16.937c-1.676,5.292-5.377,9.465-6.689,15.052
					c-2.688,11.447,0.125,24.238,7.372,33.496c8.152,10.415,20.804,16.419,33.735,18.173c7.039,0.954,13.062,1.244,20.098,2.711
					c7.619,1.589,15.56,1.876,23.182,0.142c11.316-2.574,21.827-9.984,26.478-20.617c4.65-10.632,2.442-24.354-6.437-31.826
					c-6.879-5.789-16.303-7.22-24.584-10.722c-9.65-4.082-13.723-10.729-15.635-20.491
					C275.905,136.685,275.766,135.841,275.636,134.977z"/>
				<path style="fill:#00367D;" d="M316.187,313.279c4.445-2.574,4.432-10.24,4.432-10.24c-1.967-10.796-3.962-21.73-7.053-32.268
					c-2.351-8.018-5.538-14.939-7.39-23.311c-2.557-11.56-5.115-23.12-7.672-34.68c-1.652-7.468-1.459-12.406-8.165-16.664
					c-7.475-4.746-17.76-6.208-26.355-4.875c11.334,11.59,11.87,30.236,15.282,45.23c2.236,9.827,4.81,19.591,7.889,29.189
					c2.967,9.25,7.62,17.694,10.896,26.718c0,0,6.091,16.784,6.091,16.784s0.376,0.996,1.038,2.193
					C306.217,313.547,311.741,315.853,316.187,313.279z"/>
				<path style="fill:#E2B4BD;" d="M291.253,93.865l-0.473-0.309C291.079,93.801,291.253,93.865,291.253,93.865z"/>
				<path style="fill:#002657;" d="M248.191,367.588c-2.171-0.254-4.349-0.522-6.523-0.713c1.803,0.158,3.202-10.646,3.117-11.966
					c-0.227-3.526-1.907-7.201-2.611-10.75c-1.853-9.346-3.36-18.755-5.067-28.128l34.612-7.484l6.603,8.034
					c13.884,4.741,27.723,9.621,41.524,14.596c11.002,3.966,21.984,7.994,32.883,12.236c3.873,1.507,10.484,2.811,12.873,6.475
					c2.565,3.935,2.191,12.202,1.908,16.568c-0.337,5.195-2.003,10.475-5.601,14.237c-6.566,6.865-13.381,4.64-21.143,2.72
					c-8.972-2.219-18.669-2.848-27.807-4.289c-10.437-1.647-20.87-3.316-31.297-5.029c0,0-14.94-4.704-14.979-4.717
					c-4.02-1.266-8.115-0.91-12.244-1.179C252.367,368.063,250.281,367.832,248.191,367.588z"/>
				<path style="fill:#002657;" d="M243.91,366.644c1.204-0.237,2.418-0.454,3.658-0.637c0.383-4.362,0.941-8.53,1.744-12.83
					c0.805-4.311,2.553-9.319,2.553-13.693c1.423-7.627,2.847-15.255,4.27-22.882l-34.58-7.633l-6.637,8.005
					c-13.794,4.644-27.543,9.425-41.257,14.301c-18.877,6.711-49.441,11.024-47.518,37.317c0.371,5.076,2.495,11.993,6.541,15.428
					c3.519,2.987,6.404,1.536,10.622,0.799c10.106-1.766,20.346-2.958,30.49-4.501c12.518-1.904,25.032-3.845,37.535-5.844
					c0,0,14.906-4.623,14.999-4.652c3.672-1.139,7.456-0.957,11.148-1.781C239.636,367.559,241.755,367.069,243.91,366.644z"/>
				<g>
					<path style="fill:#DDAFB8;" d="M256.84,195.85l-2.09,2.64c-4.34,5.52-11.69,5.09-15.59-0.89l-2.83-4.36
						c0.5-6.61,1.1-13.09,1.51-17.34c0.29-3.02,0.49-4.91,0.49-4.91l8.25,0.97l7.26-0.97c0,0,1.06,6.74,1.99,14.67
						C256.22,188.98,256.59,192.52,256.84,195.85z"/>
					<path style="fill:#DD96A9;" d="M255.83,185.66c-4.53,0.09-9.11-1.31-12.75-4.01c-2.1-1.55-3.87-3.53-5.24-5.75
						c0.29-3.02,0.49-4.91,0.49-4.91l8.25,0.97l7.26-0.97C253.84,170.99,254.9,177.73,255.83,185.66z"/>
					<path style="fill:#00367D;" d="M226.93,191.853l8.107-0.127l31.922,0.127c0,0,14.059,7.727,10.639,18.368
						c-3.419,10.641-38.661,21.091-38.661,21.091l-16.82-8.171c0,0-3.42-4.56-3.99-8.17c-0.57-3.61-1.71-5.7-0.57-8.171
						c1.14-2.47,3.253-12.133,3.253-12.133L226.93,191.853z"/>
					<g>
						<path style="fill:#3537A6;" d="M218.561,125.174c0,0-3.232,7.808,0.775,11.816c4.008,4.008,5.611,13.626,5.611,13.626
							s8.817-23.244,8.817-24.046C233.764,125.769,218.561,125.174,218.561,125.174z"/>
						<path style="fill:#DDAFB8;" d="M269.578,146.729c-1.611-0.318-3.094,0.12-4.239,0.984v-22.367l-27.106-7.306l-15.619,3.241
							c0,0,2.919,18.197,2.919,18.197c1.88,11.574-0.606,26.047,10.923,33.277c5.128,3.216,14.469,4.703,19.744,0.806
							c4.547-3.358,6.847-10.65,9.138-15.652c0,0,0.396-0.561,1.599-0.561c3.27,0,5.863-2.603,5.238-5.986
							C271.787,149.258,271.675,147.142,269.578,146.729z"/>
						<path style="fill:#D891A4;" d="M267.583,149.29c0,0-2.245,3.741-0.748,5.986c1.497,2.245,2.245-1.497,1.497-2.245
							c-0.748-0.748-0.748,0,0.748-0.748C270.577,151.534,267.583,149.29,267.583,149.29z"/>
						<path style="fill:#3537A6;" d="M265.552,144.155c2.637,0.325,5.131,0.151,6.975-0.863c5.096-2.801,4.521-11.945,3.208-16.92
							c-1.548-5.861-5.84-11.682-11.496-14.219c-29.633-13.676-50.909,13.633-46.351,20.472c4.48,6.722,19.788-9.877,22.638-13.275
							c5.1,6.912,4.1,14.797,12.481,20.285C255.766,141.442,260.883,143.579,265.552,144.155z"/>
						<path style="fill:#3537A6;" d="M264.454,137.396c3.966,2.894,7.559,5.304,8.887,6.721c0.716-7.013,4.181-17.942-0.813-24.132
							c-2.023-2.507-4.515-4.004-7.373-5.323c-6.524-3.011-14.405-6.671-21.814-6.161c-14.104,0.973-19.082,15.387-19.792,27.216
							c11.21,0.468,22.391-6.296,27.182-16.442C248.148,124.748,256.966,131.933,264.454,137.396z"/>
						<path style="fill:#E5E8F1;" d="M242.143,146.296"/>
					</g>
				</g>
				<g>
					<path style="fill:#E2B4BD;" d="M305.299,312.027c0.56,0.617,1.21,1.243,1.915,1.733c2.104,1.465,67.743,32.734,67.743,32.734
						l3.636-7.489c0,0-52.573-34.934-55.455-36.778c-2.311-1.479-3.654-1.798-4.286-1.851l-0.446,0.011
						c0,0-6.086-2.971-10.104,0.894c-4.017,3.865-4.522,8.398-3.413,10.28C304.977,311.712,305.125,311.868,305.299,312.027z"/>
					<path style="fill:#00367D;" d="M364.09,328.144c0,0-6.967,3.989-9.111,12.58c0,0-47.247-21.684-50.706-31.658
						c-3.459-9.973,4.077-17.635,4.077-17.635h10.249L364.09,328.144z"/>
					<g>
						<path style="fill:#E2B4BD;" d="M379.404,345.153c0,0,6.677-3.677,9.805-4.732c3.128-1.055,20.046-6.998,22.393-7.552
							c2.347-0.554,3.381-3.357,3.381-3.357s7.609-1.854,7.271-3.56s-2.972-1.769-4.56-1.312c-1.588,0.456-3.981,1.342-3.981,1.342
							s-2.256-0.585-3.062-0.393c-1.025,0.245-8.877,1.553-9.111,2.285c0.534-1.669-0.316-3.465-1.371-4.864
							c-0.732-0.97-1.725-1.926-2.94-1.917c-1.499,0.011-2.544,1.438-3.333,2.713c0.424,1.134,0.849,2.268,1.273,3.401
							c0.081,0.217,0.163,0.435,0.216,0.662c0.27,1.155-0.319,2.456-1.367,3.014c-0.815,0.435-11.572-0.538-11.509,1.863
							c1.001-3.051,3.642-5.508,6.758-6.288c1.254-0.314,2.609-0.388,3.701-1.079c0.632-0.4,2.64-4.62,1.747-4.46
							c-1.89,0.34-3.78,0.68-5.67,1.02c-5.902,1.062-10.625,2.859-13.846,8.095c-2.327,3.782-3.638,7.021-2.541,11.395
							c0.156,0.621,1.389,5.532,2.907,5.02C375.594,346.438,379.404,345.153,379.404,345.153z"/>
						<g>
							<path style="fill:#E4A183;" d="M395.977,334.066l-0.224-0.646l7.511-2.613c2.809-0.658,8.192-1.931,8.714-2.106
								c0.66-0.224,1.777-1.219,1.801-1.527c0.014-0.342-0.252-0.846-0.355-1.012l0.579-0.362c0.049,0.078,0.484,0.788,0.458,1.401
								c-0.03,0.751-1.537,1.901-2.265,2.146c-0.683,0.23-8.413,2.038-8.742,2.115L395.977,334.066z"/>
						</g>
						<g>
							
								<rect x="399.961" y="331.972" transform="matrix(0.9325 -0.3611 0.3611 0.9325 -92.4925 169.6697)" style="fill:#E4A183;" width="15.544" height="0.683"/>
						</g>
					</g>
				</g>
				<path style="fill:#00367D;" d="M182.002,313.279c-4.446-2.574-4.432-10.24-4.432-10.24c1.968-10.796,3.963-21.73,7.053-32.268
					c2.351-8.018,5.538-14.939,7.39-23.311c2.557-11.56,5.115-23.12,7.672-34.68c1.652-7.468,1.459-12.407,8.167-16.665
					c7.429-4.716,14.034-5.058,22.548-4.591c-4,6.512-7.179,16.465-7.572,24.227c-0.259,5.175-9.36,52.526-22.689,76.628
					l-6.092,16.784c0,0-0.376,0.996-1.037,2.193C191.972,313.547,186.448,315.853,182.002,313.279z"/>
				<g>
					<path style="fill:#E2B4BD;" d="M193.862,310.116c-0.529,0.644-1.147,1.301-1.827,1.826
						c-2.029,1.568-66.036,36.053-66.036,36.053l-4.002-7.299c0,0,50.776-37.497,53.563-39.482c2.235-1.592,3.561-1.978,4.189-2.061
						l0.446-0.011c0,0,5.931-3.269,10.135,0.392c4.204,3.661,4.932,8.164,3.918,10.098
						C194.168,309.785,194.027,309.948,193.862,310.116z"/>
					<g>
						<path style="fill:#E2B4BD;" d="M121.491,346.876c0,0-6.852-3.341-10.028-4.24c-3.176-0.898-20.368-5.996-22.74-6.433
							c-2.371-0.437-3.543-3.185-3.543-3.185s-7.692-1.474-7.438-3.196c0.253-1.722,2.88-1.914,4.489-1.537
							c1.609,0.377,4.043,1.143,4.043,1.143s2.224-0.696,3.039-0.544c1.036,0.194,8.943,1.111,9.213,1.83
							c-0.616-1.641,0.144-3.477,1.128-4.926c0.683-1.005,1.628-2.009,2.841-2.061c1.498-0.064,2.612,1.31,3.464,2.544
							c-0.368,1.153-0.736,2.307-1.103,3.46c-0.07,0.221-0.141,0.443-0.183,0.672c-0.213,1.167,0.441,2.437,1.514,2.943
							c0.836,0.394,11.531-1.111,11.587,1.29c-1.152-2.998-3.911-5.321-7.061-5.945c-1.268-0.251-2.625-0.258-3.75-0.894
							c-0.651-0.368-2.866-4.484-1.966-4.368c1.905,0.246,3.809,0.492,5.713,0.737c5.948,0.767,10.754,2.329,14.231,7.398
							c2.512,3.662,3.982,6.832,3.103,11.255c-0.125,0.627-1.113,5.594-2.655,5.158C125.36,347.97,121.491,346.876,121.491,346.876z
							"/>
						<g>
							<path style="fill:#E4A183;" d="M104.389,336.624l-7.632-2.237c-0.298-0.052-8.109-1.475-8.803-1.671
								c-0.739-0.21-2.301-1.283-2.368-2.033c-0.055-0.609,0.343-1.34,0.389-1.421l0.596,0.332c-0.095,0.17-0.335,0.689-0.304,1.027
								c0.038,0.307,1.202,1.246,1.875,1.436c0.529,0.151,5.97,1.155,8.773,1.664l7.666,2.246L104.389,336.624z"/>
						</g>
						<g>
							
								<rect x="92.218" y="327.684" transform="matrix(0.3137 -0.9495 0.9495 0.3137 -254.9987 318.0933)" style="fill:#E4A183;" width="0.683" height="15.544"/>
						</g>
					</g>
				</g>
				<path style="fill:#00367D;" d="M200.37,316.878c-0.229,1.536-0.292,3.082-0.087,4.633c0.673,5.104,4.033,7.62,8.649,8.543
					c4.471,0.895,9.013,2.544,13.682,2.639c10.746,0.219,30.643,2.037,41.37,1.373c7.224-0.447,26.398-1.706,26.376-12.165
					c-0.014-6.373-3.769-14.148-4.771-20.617c-1.003-6.477-1.558-13.024-1.657-19.577c-0.214-14.104,3.667-27.259,4.55-41.195
					c0.481-7.599-0.471-15.283-2.759-22.544c-1.731-5.491-2.928-11.708-5.973-16.622c-1.682-2.714-7.48-6.695-8.167-0.725
					c-0.581,5.048,3.351,8.861-1.205,13.654c-7.347,7.727-23.435,8.741-23.435,8.741s-16.087-1.014-23.435-8.741
					c-4.708-4.951,2.541-19.965-0.446-21.211c-4.434-1.844-8.446,10.582-9.408,13.281c-3.236,9.077-6.157,16.61-5.36,26.53
					c0.526,6.544,2.041,12.926,3.354,19.341c1.182,5.773,0.068,11.501-0.563,17.373c-1.426,13.255-4.258,26.359-8.44,39.017
					C201.751,311.31,200.786,314.078,200.37,316.878z"/>
				<path style="fill:#DD96A9;" d="M250.83,370.323c-4.877,1.106-8.452,1.563-14.37,0.328c-6.286-1.347-13.65,3.124-18.805,6.146
					c-3.238,1.898-6.418,4.158-9.911,5.499c-3.724,1.431-7.684,2.424-11.489,3.624c-0.923,0.291-1.864,0.591-2.643,1.165
					c-0.779,0.574-1.381,1.48-1.332,2.446c0.073,1.46,1.617,2.492,3.077,2.535c1.461,0.044,2.836-0.631,4.141-1.289
					c-0.858,0.259-1.738,0.529-2.438,1.088c-0.7,0.559-1.186,1.482-0.968,2.351c0.296,1.181,1.768,1.734,2.954,1.459
					c1.186-0.275,2.138-1.132,3.032-1.957c-2.877-0.415-2.065,2.229-0.992,3.288c1.655,1.633,5.746,1.324,7.831,1.227
					c11.399-0.53,20.527-4.043,30.962-7.883c5.113-1.882,9.456-4.175,14.895-4.332c8.609-0.248,17.236-0.216,25.848-0.324
					c16.874-0.212,33.747-0.423,50.621-0.635c8.051-0.101,16.526-0.316,23.444-4.434c6.918-4.118,11.349-13.582,7.215-20.491
					c-2.39-3.994-7.045-6.198-11.665-6.765c-4.62-0.566-9.284,0.275-13.863,1.114c-18.283,3.349-36.566,6.697-54.85,10.046
					c-9.099,1.667-18.434,2.876-27.429,5.023C252.927,369.832,251.85,370.091,250.83,370.323z"/>
				<path style="fill:#002657;" d="M233.521,393.127c-1.186,0.462-15.55,3.474-12.502-7.789
					c3.048-11.263,14.865-15.962,13.773-15.723c-1.092,0.238-4.804-1.695-13.774,2.324c-11.529,5.167-25.567,7.261-30.469,20.53
					c-0.792,2.144-0.669,4.785,0.904,6.444c1.985,2.094,5.317,1.892,8.18,1.535C211.557,398.959,222.591,398.301,233.521,393.127z"
					/>
				<path style="fill:#00367D;" d="M247.97,367.099c-1.056,0.132-2.111,0.264-3.167,0.396c0.809,7.58,1.617,15.161,2.426,22.741
					c3.984-0.06,7.967-0.12,11.95-0.18c2.062-0.031,5.611,2.446,7.865,2.925c3.091,0.656,6.295,0.807,9.435,0.464
					c5.615-0.613,9.71-3.321,15.282-2.893c7.556,0.58,15.07,2.106,22.633,2.78c17.356,1.546,41.368,3.606,55.981-8.042
					c20.475-16.32,0.945-41.034-11.894-42.133c-11.497-0.984-24.783,2.567-35.319,6.559c-14.046,5.322-32.394,4.168-47.342,5.503
					c-4.207,0.376-8.488,0.769-12.398,2.367c-3.91,1.598-7.466,4.613-8.657,8.665C252.5,366.533,250.235,366.816,247.97,367.099z"/>
				<path style="fill:#002657;" d="M233.062,371.871c1.961-2.406,5.117-4.51,8.007-3.38c2.861,1.118,3.769,4.728,3.732,7.799
					c-0.066,5.519-3.975,21.212-12.291,18.196C224.105,391.439,229.259,376.538,233.062,371.871z"/>
				<path style="fill:#E2B4BD;" d="M243.081,371.783c4.877,1.106,8.452,1.563,14.37,0.328c6.286-1.347,13.65,3.124,18.806,6.146
					c5.959,3.493,14.021,6.539,17.927,12.603c1.573,2.441,2.029,5.845,0.307,8.184c-1.626,2.209-4.63,2.858-7.37,2.981
					c-6.115,0.276-10.699-1.787-16.217-3.743c-5.679-2.014-11.218-4.39-16.87-6.47c-5.113-1.882-9.456-4.176-14.895-4.332
					c-8.609-0.248-17.236-0.216-25.848-0.324c-16.874-0.212-33.747-0.423-50.621-0.635c-8.051-0.101-16.526-0.316-23.444-4.434
					c-6.918-4.118-11.349-13.582-7.215-20.491c2.39-3.994,7.045-6.199,11.665-6.765c4.62-0.566,9.284,0.275,13.863,1.114
					c18.283,3.349,36.566,6.697,54.85,10.046c9.099,1.667,18.434,2.876,27.429,5.023
					C240.984,371.291,242.061,371.551,243.081,371.783z"/>
				<path style="fill:#00367D;" d="M235.505,366.626c2.149,1.218,4.429,2.407,5.032,2.162c-4.625,1.877-8.353,5.845-9.938,10.578
					c-1.585,4.733-0.999,10.146,1.563,14.43c-8.821-0.142-17.609-0.753-26.334-0.386c-12.971,0.546-25.956,0.484-38.934,0.752
					c-14.732,0.304-30.195,0.931-42.494-8.872c-20.474-16.32-0.944-41.034,11.895-42.133c11.95-1.022,25.25,3.143,36.805,5.625
					c9.041,1.941,17.28,4.593,26.598,5.977c7.436,1.105,13.859,2.356,20.947,5.052c3.663,1.393,7.281,2.906,10.846,4.535
					C232.086,364.617,233.752,365.631,235.505,366.626z"/>
			</g>
			<polygon style="fill:#FFFFFF;" points="244.781,252.936 263.509,192.765 230.4,191.523 244.781,252.936 			"/>
			<polygon style="fill:#FFFFFF;" points="244.899,290.939 241.285,317.092 249.364,317.092 244.899,290.939 			"/>
			<path style="fill:#00367D;" d="M134.045,329.194c0,0,6.968,3.989,9.111,12.58c0,0,47.247-21.684,50.706-31.658
				c3.459-9.973-4.077-17.635-4.077-17.635h-10.249L134.045,329.194z"/>
			<path style="fill:#DDAFB8;" d="M230.4,191.523c0,0,0.36,14.667,16.184,14.667c15.824,0,17.4-14.949,17.4-14.949L230.4,191.523z"
				/>
			<polyline style="fill:#002657;" points="230.4,191.523 217.068,203.808 244.781,252.936 230.4,191.523 			"/>
			<polyline style="fill:#002657;" points="264.289,191.523 278.391,202.494 244.888,252.592 264.289,191.523 			"/>
			<circle style="fill:#002657;" cx="244.781" cy="261.216" r="2.78"/>
			<circle style="fill:#002657;" cx="244.781" cy="283.09" r="2.78"/>
			<path style="fill:#002657;" d="M263.986,395.671c3.749,1.456,11.241,1.673,13.056-2.853c2.736-6.823-2.95-14.927-8.986-17.55
				c-5.377-2.337-11.005-1.928-16.684-2.293c3.35-4.133,11.903-4.795,16.54-3.371c6.721,2.063,12.024,7.334,17.932,10.909
				c3.732,2.259,7.488,4.534,10.754,7.426c2.896,2.564,17.169,22.085,5.694,19.095c-6.769-1.764-13.421-3.605-20.282-4.72
				C275.273,401.219,270.227,398.1,263.986,395.671z"/>
		</g>
		<polygon style="fill:#002657;" points="240.482,317.127 237.261,337.087 253.388,337.087 249.902,317.127 		"/>
		<polygon style="fill:#002657;" points="285.164,300.608 263.677,308.304 266.074,314.148 286.404,308.304 		"/>
		<path style="fill:#002657;" d="M204.814,298.98c0.053-0.211,21.932,6.484,21.932,6.484l-2.494,7.487l-21.727-5.572L204.814,298.98
			z"/>
		<polygon style="fill:#DEAD6D;" points="158.326,185.912 162.853,194.189 171.13,198.715 162.853,203.242 158.326,211.519 
			153.799,203.242 145.522,198.715 153.799,194.189 		"/>
		<polygon style="fill:#DEAD6D;" points="352.491,260.811 356.382,267.926 363.497,271.817 356.382,275.708 352.491,282.823 
			348.6,275.708 341.485,271.817 348.6,267.926 		"/>
		<polygon style="fill:#DEAD6D;" points="312.04,138.461 314.81,143.526 319.875,146.296 314.81,149.067 312.04,154.132 
			309.27,149.067 304.204,146.296 309.27,143.526 		"/>
		<polygon style="fill:#DEAD6D;" points="110.852,399.509 113.623,404.574 118.688,407.344 113.623,410.115 110.852,415.18 
			108.082,410.115 103.017,407.344 108.082,404.574 		"/>
		<polygon style="fill:#DEAD6D;" points="367.711,405.806 370.481,410.871 375.546,413.641 370.481,416.411 367.711,421.476 
			364.941,416.411 359.876,413.641 364.941,410.871 		"/>
	</g>
	<g>
		
			<rect x="47.832" y="182.91" transform="matrix(0.9127 -0.4087 0.4087 0.9127 -85.7041 53.991)" style="fill:#A3B1C7;" width="71.307" height="89.263"/>
		
			<rect x="67.364" y="201.055" transform="matrix(0.9493 -0.3145 0.3145 0.9493 -72.0304 44.8565)" style="fill:#B8C8E0;" width="71.307" height="89.263"/>
		<g>
			
				<rect x="93.714" y="228.91" transform="matrix(0.9493 -0.3144 0.3144 0.9493 -67.1614 45.9565)" style="fill:#FFFFFF;" width="30.299" height="4.477"/>
			
				<rect x="81.161" y="218.413" transform="matrix(0.9493 -0.3144 0.3144 0.9493 -64.4963 41.4756)" style="fill:#FFFFFF;" width="30.3" height="4.478"/>
			
				<rect x="74.943" y="238.034" transform="matrix(0.9493 -0.3145 0.3145 0.9493 -71.4291 37.7584)" style="fill:#FFFFFF;" width="12.748" height="4.478"/>
			
				<rect x="78.083" y="248.041" transform="matrix(0.9493 -0.3145 0.3145 0.9493 -74.5852 38.2284)" style="fill:#FFFFFF;" width="6.214" height="4.477"/>
			
				<rect x="89.855" y="241.988" transform="matrix(0.9493 -0.3145 0.3145 0.9493 -71.7534 43.6664)" style="fill:#FFFFFF;" width="19.217" height="4.478"/>
			
				<rect x="116.355" y="234.716" transform="matrix(0.9493 -0.3145 0.3145 0.9493 -68.3531 50.2005)" style="fill:#FFFFFF;" width="10.121" height="4.477"/>
			
				<rect x="80.702" y="254.814" transform="matrix(0.9493 -0.3145 0.3145 0.9493 -76.2235 41.5989)" style="fill:#FFFFFF;" width="20.242" height="4.477"/>
			
				<rect x="106.031" y="245.84" transform="matrix(0.9493 -0.3144 0.3144 0.9493 -72.0247 49.6596)" style="fill:#FFFFFF;" width="23.766" height="4.478"/>
			
				<rect x="84.003" y="265.817" transform="matrix(0.9493 -0.3144 0.3144 0.9493 -79.8397 41.1685)" style="fill:#FFFFFF;" width="7.367" height="4.477"/>
			
				<rect x="95.562" y="259.643" transform="matrix(0.9493 -0.3144 0.3144 0.9493 -76.9543 46.7169)" style="fill:#FFFFFF;" width="21.524" height="4.477"/>
			
				<rect x="122.116" y="252.704" transform="matrix(0.9493 -0.3144 0.3144 0.9493 -73.7082 52.9507)" style="fill:#FFFFFF;" width="10.313" height="4.477"/>
			
				<rect x="86.631" y="272.651" transform="matrix(0.9493 -0.3144 0.3144 0.9493 -81.5113 44.4883)" style="fill:#FFFFFF;" width="21.011" height="4.477"/>
			
				<rect x="113.29" y="263.587" transform="matrix(0.9493 -0.3144 0.3144 0.9493 -77.2722 52.6324)" style="fill:#FFFFFF;" width="22.42" height="4.477"/>
		</g>
	</g>
	<g>
		<polygon style="fill:#60A3A1;" points="380.388,117.925 389.402,115.947 451.844,130.495 430.314,191.236 371.755,142.28 		"/>
		
			<rect x="361.827" y="127.917" transform="matrix(0.9425 0.3341 -0.3341 0.9425 82.0852 -123.5227)" style="fill:#81C0BE;" width="76.656" height="97.93"/>
		<polygon style="fill:#81C0BE;" points="446.396,179.49 434.334,179.893 444.59,150.96 453.049,160.719 		"/>
		
			<rect x="385.555" y="143.427" transform="matrix(0.9425 0.3341 -0.3341 0.9425 75.7687 -126.8264)" style="fill:#FFFFFF;" width="42.092" height="26.878"/>
	</g>
	<g>
		<path style="fill:#002657;" d="M425.831,267.979l-13.694-18.498c-1.087-1.468-3.159-1.778-4.627-0.69l-36.292,26.867
			c-1.468,1.087-1.778,3.159-0.69,4.627l13.694,18.498c1.087,1.468,3.159,1.778,4.627,0.69l36.292-26.867
			C426.609,271.519,426.918,269.447,425.831,267.979z"/>
		<path style="fill:#B8C8E0;" d="M371.594,277.38l37.452-27.726c0.397-0.294,0.957-0.21,1.251,0.187l14.653,19.793
			c0.294,0.397,0.21,0.957-0.187,1.251l-37.452,27.726c-0.397,0.294-0.957,0.21-1.251-0.187l-14.653-19.793
			C371.113,278.234,371.197,277.673,371.594,277.38z"/>
		<path style="fill:#FFFFFF;" d="M410.052,275.898c-2.387,1.767-5.393,2.098-7.981,1.141c-1.507-0.542-2.866-1.525-3.893-2.912
			c-1.019-1.377-1.57-2.974-1.649-4.573c-0.153-2.744,1.042-5.523,3.428-7.29c3.763-2.786,9.07-1.994,11.856,1.769
			C414.607,267.805,413.815,273.112,410.052,275.898z"/>
		<path style="fill:#FFFFFF;" d="M383.88,283.426c-1.653,1.224-3.985,0.876-5.208-0.777c-1.224-1.653-0.876-3.985,0.777-5.208
			c1.653-1.224,3.985-0.876,5.208,0.777C385.881,279.87,385.533,282.202,383.88,283.426z"/>
		<path style="fill:#FFFFFF;" d="M389.76,291.369c-1.653,1.224-3.985,0.876-5.208-0.777c-1.224-1.653-0.876-3.985,0.777-5.208
			s3.985-0.876,5.208,0.777C391.761,287.814,391.413,290.146,389.76,291.369z"/>
		<path style="fill:#81C0BE;" d="M407.953,270.173c-1.169,0.865-2.818,0.619-3.683-0.55c-0.865-1.169-0.619-2.818,0.549-3.683
			c1.169-0.865,2.818-0.619,3.683,0.55C409.368,267.659,409.122,269.307,407.953,270.173z"/>
		<path style="fill:#81C0BE;" d="M402.888,276.434l-0.122,0.091c-1.507-0.542-2.866-1.525-3.893-2.912
			c-1.019-1.377-1.57-2.974-1.649-4.573l0.122-0.091c2.07-1.533,4.988-1.088,6.514,0.972
			C405.392,271.991,404.958,274.901,402.888,276.434z"/>
		<path style="fill:#002657;" d="M414.52,254.228c0.118,0.227-1.273,2.311-1.273,2.311l6.215,8.475l3.43-0.054
			C422.893,264.96,414.237,253.684,414.52,254.228z"/>
		<polygon style="fill:#002657;" points="414.923,279.432 419.323,276.207 419.97,277.326 415.685,280.519 		"/>
	</g>
	<g>
		<path style="fill:#002657;" d="M172.871,95.911l-17.012,34.373c-0.885,1.787-3.05,2.519-4.837,1.634l-50.566-25.026
			c-1.787-0.884-2.519-3.05-1.634-4.838l17.012-34.373c0.884-1.787,3.05-2.519,4.837-1.634l50.566,25.026
			C173.024,91.958,173.755,94.123,172.871,95.911z"/>
		<path style="fill:none;stroke:#FFFFFF;stroke-miterlimit:10;" d="M105.628,88.302c1.756,0.688,56.321,29.677,56.321,29.677"/>
		<line style="fill:none;stroke:#FFFFFF;stroke-miterlimit:10;" x1="132.801" y1="94.869" x2="140.188" y2="98.403"/>
	</g>
	<circle style="fill:none;stroke:#FFFFFF;stroke-miterlimit:10;" cx="233.128" cy="148.637" r="7.65"/>
	<circle style="fill:none;stroke:#FFFFFF;stroke-miterlimit:10;" cx="252.431" cy="148.637" r="7.65"/>
	
		<line style="fill:none;stroke:#FFFFFF;stroke-linecap:round;stroke-linejoin:round;stroke-miterlimit:10;" x1="260.08" y1="148.637" x2="266.321" y2="146.296"/>
	<line style="fill:none;stroke:#FFFFFF;stroke-miterlimit:10;" x1="240.777" y1="148.637" x2="244.781" y2="148.637"/>
</g>
</svg>
